<?xml version="1.0" encoding="UTF-8" standalone="no"?>
<!-- Created with Inkscape (http://www.inkscape.org/) -->

<svg
   width="88.216057mm"
   height="96.409019mm"
   viewBox="0 0 88.216057 96.409019"
   version="1.1"
   id="svg5"
   inkscape:version="1.1.1 (3bf5ae0d25, 2021-09-20)"
   sodipodi:docname="Fusion360.svg"
   xmlns:inkscape="http://www.inkscape.org/namespaces/inkscape"
   xmlns:sodipodi="http://sodipodi.sourceforge.net/DTD/sodipodi-0.dtd"
   xmlns="http://www.w3.org/2000/svg"
   xmlns:svg="http://www.w3.org/2000/svg">
  <sodipodi:namedview
     id="namedview7"
     pagecolor="#ffffff"
     bordercolor="#cccccc"
     borderopacity="1"
     inkscape:pageshadow="0"
     inkscape:pageopacity="1"
     inkscape:pagecheckerboard="0"
     inkscape:document-units="mm"
     showgrid="false"
     inkscape:snap-global="false"
     inkscape:zoom="1.4009603"
     inkscape:cx="165.2438"
     inkscape:cy="112.06599"
     inkscape:window-width="3840"
     inkscape:window-height="2097"
     inkscape:window-x="-8"
     inkscape:window-y="-8"
     inkscape:window-maximized="1"
     inkscape:current-layer="layer1" />
  <defs
     id="defs2" />
  <g
     inkscape:label="图层 1"
     inkscape:groupmode="layer"
     id="layer1"
     transform="translate(-77.357205,-32.483673)">
    <g
       id="g10006">
      <path
         id="rect960"
         style="fill:#803300;stroke-width:0.52052;stroke-linecap:round"
         d="m 83.043651,47.698369 v 72.914921 a 8.2796755,8.2796755 0 0 1 0.006,-0.14934 8.5629572,8.5629572 0 0 0 0.0191,0.50591 8.5629572,8.5629572 0 0 0 0.0713,0.63665 8.5629572,8.5629572 0 0 0 0.11937,0.6289 8.5629572,8.5629572 0 0 0 0.16536,0.61857 8.5629572,8.5629572 0 0 0 0.21188,0.6041 8.5629572,8.5629572 0 0 0 0.2558,0.58704 8.5629572,8.5629572 0 0 0 0.29972,0.56638 8.5629572,8.5629572 0 0 0 0.34003,0.54208 8.5629572,8.5629572 0 0 0 0.38085,0.51521 8.5629572,8.5629572 0 0 0 0.41703,0.48525 8.5629572,8.5629572 0 0 0 0.4532,0.4532 8.5629572,8.5629572 0 0 0 0.48525,0.41754 8.5629572,8.5629572 0 0 0 0.51521,0.38034 8.5629572,8.5629572 0 0 0 0.54209,0.34055 8.5629572,8.5629572 0 0 0 0.56637,0.29921 8.5629572,8.5629572 0 0 0 0.58705,0.2558 8.5629572,8.5629572 0 0 0 0.60461,0.21187 8.5629572,8.5629572 0 0 0 0.61805,0.16588 8.5629572,8.5629572 0 0 0 0.62994,0.11886 8.5629572,8.5629572 0 0 0 0.63562,0.0718 8.5629572,8.5629572 0 0 0 0.49712,0.0186 8.2796755,8.2796755 0 0 1 -0.14107,0.005 h 0.28422 73.965509 V 47.698369 Z" />
      <rect
         style="fill:#ff9955;stroke-width:0.577588;stroke-linecap:round"
         id="rect9647"
         width="18.8276"
         height="67.467575"
         x="91.264565"
         y="90.924446"
         ry="1.1473038"
         transform="matrix(0.8476149,-0.5306119,0,1,0,0)" />
      <text
         xml:space="preserve"
         style="font-weight:bold;font-size:19.8215px;line-height:1.25;font-family:sans-serif;-inkscape-font-specification:'sans-serif Bold';font-variant-ligatures:none;fill:#ffffff;stroke-width:0.371652"
         x="107.3977"
         y="120.16182"
         id="text2868"><tspan
           sodipodi:role="line"
           id="tspan2866"
           style="font-size:19.8215px;fill:#ffffff;stroke-width:0.371652"
           x="107.3977"
           y="120.16182">360</tspan></text>
      <rect
         style="fill:#ff7f2a;stroke-width:0.508461;stroke-linecap:round"
         id="rect7652"
         width="69.23571"
         height="67.989075"
         x="92.257408"
         y="32.483673"
         ry="1.9759696" />
      <text
         xml:space="preserve"
         style="font-weight:bold;font-size:48.3421px;line-height:1.25;font-family:sans-serif;-inkscape-font-specification:'sans-serif Bold';font-variant-ligatures:none;fill:#ececec;stroke-width:2.01425"
         x="118.49905"
         y="79.826553"
         id="text8271"
         transform="scale(0.93488069,1.0696552)"><tspan
           sodipodi:role="line"
           id="tspan8269"
           style="fill:#ececec;stroke-width:2.01425"
           x="118.49905"
           y="79.826553">F</tspan></text>
    </g>
  </g>
</svg>
