<?xml version="1.0" standalone="no"?><!DOCTYPE svg PUBLIC "-//W3C//DTD SVG 1.1//EN" "http://www.w3.org/Graphics/SVG/1.1/DTD/svg11.dtd"><svg t="1663700851599" class="icon" viewBox="0 0 1024 1024" version="1.1" xmlns="http://www.w3.org/2000/svg" p-id="1984" xmlns:xlink="http://www.w3.org/1999/xlink" width="128" height="128"><path d="M671.573333 456.533333c-22.613333-65.28 5.973333-170.666667 5.973334-170.666666S580.266667 341.76 509.013333 341.333333s-162.133333-55.466667-162.133333-55.466666 23.893333 104.96 2.986667 172.373333c-20.48 67.413333-105.386667 142.506667-105.386667 142.506667s110.08 9.813333 164.266667 46.933333S512 795.306667 512 795.306667s33.28-100.266667 98.986667-145.493334c65.706667-45.653333 168.96-49.066667 168.96-49.066666s-85.333333-78.506667-108.373334-143.786667z m-85.333333 157.44c-46.506667 34.56-74.666667 93.44-74.666667 93.44s-32.426667-61.013333-76.8-94.72c-44.8-33.706667-109.653333-41.386667-109.653333-41.386666a215.893333 215.893333 0 0 0 65.28-101.12c19.626667-65.706667 7.68-116.48 7.68-116.48s39.253333 29.866667 111.786667 29.866666c72.533333 0 119.04-29.866667 119.04-29.866666s-16.213333 67.413333 2.986666 115.2c18.773333 48.64 66.986667 102.826667 66.986667 102.826666s-66.56 7.253333-112.64 42.24z m-0.426667-204.373333s-40.533333 16.213333-75.52 15.786667c-34.986667 0-72.533333-15.786667-72.533333-15.786667 2.133333 24.746667 0 49.066667-7.253333 72.533333-11.52 36.693333-38.826667 69.973333-38.826667 69.973334A180.48 180.48 0 0 1 512 637.866667s19.2-36.266667 50.346667-56.746667c21.333333-13.226667 44.8-23.466667 69.546666-29.866667 0 0-31.573333-33.28-43.52-66.986666-11.946667-33.28-2.56-74.666667-2.56-74.666667zM857.6 512l141.226667-157.866667-206.933334-45.653333 21.333334-210.773333-194.56 85.333333L512 0 405.333333 183.04l-194.133333-85.333333 20.906667 211.2L25.173333 353.706667 165.973333 512 25.6 669.866667l206.933333 45.653333-21.333333 210.773333 194.133333-85.333333L512 1024l106.666667-183.04 194.56 85.333333-21.333334-210.773333 206.933334-45.226667-140.8-158.293333z m-224.853333 168.533333C597.333333 706.56 512 887.893333 512 887.893333s-64-164.693333-128-207.36c-63.146667-42.666667-229.546667-52.053333-229.546667-52.053333s127.573333-101.12 152.32-190.72c25.173333-89.6-15.786667-229.12-15.786666-229.12s123.733333 89.6 216.746666 89.6c92.586667 0 224.426667-89.6 224.426667-89.6s-34.986667 192-22.613333 232.96c12.8 40.96 159.146667 186.88 159.146666 186.88s-200.533333 26.453333-236.373333 52.053333z" p-id="1985" data-spm-anchor-id="a313x.7781069.0.i6" class="selected" fill="#d81e06"></path></svg>