<?xml version="1.0" encoding="UTF-8" standalone="no"?>
<svg
   t="1663657511633"
   class="icon"
   viewBox="0 0 2538.0632 769.44433"
   version="1.1"
   p-id="4536"
   width="317.2579"
   height="96.180542"
   id="svg6"
   sodipodi:docname="bridge_logo.svg"
   inkscape:version="1.1.1 (3bf5ae0d25, 2021-09-20)"
   xmlns:inkscape="http://www.inkscape.org/namespaces/inkscape"
   xmlns:sodipodi="http://sodipodi.sourceforge.net/DTD/sodipodi-0.dtd"
   xmlns="http://www.w3.org/2000/svg"
   xmlns:svg="http://www.w3.org/2000/svg">
  <defs
     id="defs10" />
  <sodipodi:namedview
     id="namedview8"
     pagecolor="#ffffff"
     bordercolor="#cccccc"
     borderopacity="1"
     inkscape:pageshadow="0"
     inkscape:pageopacity="1"
     inkscape:pagecheckerboard="0"
     showgrid="false"
     inkscape:zoom="3.0714951"
     inkscape:cx="177.6008"
     inkscape:cy="70.649632"
     inkscape:window-width="1920"
     inkscape:window-height="1017"
     inkscape:window-x="-8"
     inkscape:window-y="2152"
     inkscape:window-maximized="1"
     inkscape:current-layer="svg6"
     fit-margin-top="0"
     fit-margin-left="0"
     fit-margin-right="0"
     fit-margin-bottom="0" />
  <rect
     style="fill:#cccccc;stroke:none;stroke-width:49.6926;stroke-linecap:round"
     id="rect1886"
     width="767.92096"
     height="518.57397"
     x="0.50937897"
     y="140.90787"
     ry="0" />
  <text
     xml:space="preserve"
     style="font-weight:bold;font-size:426.667px;line-height:1.25;font-family:sans-serif;-inkscape-font-specification:'sans-serif Bold';font-variant-ligatures:none;fill:#1a1a1a;stroke-width:8"
     x="841.81183"
     y="534.72229"
     id="text4441"><tspan
       sodipodi:role="line"
       id="tspan4439"
       style="font-size:426.667px;fill:#1a1a1a;stroke-width:8"
       x="841.81183"
       y="534.72229">浙江交工</tspan></text>
  <text
     xml:space="preserve"
     style="font-weight:bold;font-size:64px;line-height:1.25;font-family:sans-serif;-inkscape-font-specification:'sans-serif Bold';font-variant-ligatures:none;fill:#cccccc;stroke-width:8"
     x="874.69269"
     y="711.98779"
     id="text17331"><tspan
       sodipodi:role="line"
       id="tspan17329"
       style="font-size:64px;fill:#cccccc;stroke-width:8"
       x="874.69269"
       y="711.98779">ZHEJIANG COMMUNIATIONS CONSTRUCTION</tspan></text>
  <path
     d="m 56.13317,2.094318 c -24.80303,5.5947 -44.38437,23.870595 -52.2169,49.046595 -3.54329,11.7488 -3.72978,17.157 -3.72978,136.882897 0,68.6279 0.55947,124.7611 1.30542,124.7611 0.74596,0 4.66222,-3.1703 8.95147,-7.2731 43.07894,-41.214 120.47185,-88.9552 185.55647,-114.5042 63.03327,-24.6165 116.18261,-37.2978 191.33764,-45.1303 11.56232,-1.3054 18.6489,1.4919 8.57849,3.3568 -16.41103,3.1703 -82.61458,24.4301 -106.67165,34.314 -66.94954,27.7868 -131.47469,64.3387 -187.0484,106.4852 -26.85441,20.1408 -43.63841,35.0599 -74.40908,65.4576 l -27.60036,27.2273 v 15.8516 l 0.18649,15.8516 16.22453,-16.9705 c 74.22259,-77.3929 156.46421,-139.3073 241.87614,-182.1997 18.27591,-9.138 26.29494,-12.8678 48.86009,-22.9382 3.17032,-1.4919 6.52712,-2.6108 7.45956,-2.6108 0.74596,0 3.72978,-1.1189 6.34063,-2.6108 4.28924,-2.2379 33.38151,-12.3083 67.50899,-23.4976 7.08657,-2.2379 13.2407,-3.5433 13.80017,-2.9839 1.49192,1.3055 1.6784,1.119 -10.62987,7.2731 -143.96943,70.4928 -290.36325,193.9485 -380.25091,320.5745 L 0,504.86851 l 0.55947,104.8068 0.55946,104.9932 5.96765,12.4948 c 7.45956,15.8515 19.76782,28.1598 35.61938,35.6194 l 12.49476,5.9676 322.62583,0.5595 c 235.349,0.373 325.6097,0 333.8152,-1.4919 21.2597,-4.1028 41.0276,-19.9543 51.098,-41.0276 l 4.8487,-10.2569 0.9324,-123.0827 c 0.5595,-67.6955 0.746,-123.4556 0.373,-124.0151 -0.746,-1.1189 -1.6784,-0.373 -28.7193,21.4462 -122.7097,99.3986 -229.38138,148.2587 -323.93127,148.2587 -77.76588,0 -134.64501,-36.3653 -154.59932,-98.8391 -8.392,-26.4814 -10.62987,-42.1465 -10.62987,-79.2578 0,-38.6032 3.17031,-59.49 13.98667,-94.9229 5.59467,-18.6489 22.56517,-57.8115 32.63557,-75.7145 3.54328,-6.3406 6.5271,-11.9353 6.5271,-12.4947 0,-0.5595 6.34063,-10.4434 13.98667,-22.0057 18.6489,-28.1599 22.56517,-30.7707 12.49477,-8.019 -13.80019,30.9571 -32.0761,88.0227 -38.9762,121.7772 -4.28924,21.4462 -4.84871,28.7193 -4.84871,61.5414 0,35.0599 0.1865,38.2302 4.84871,52.7763 9.51094,30.0247 22.56517,47.3682 48.67361,64.5252 24.05707,15.8516 44.94384,22.0057 75.71451,22.0057 37.67077,0 66.94951,-7.8325 110.21495,-30.0247 67.32251,-34.1275 156.09121,-94.5499 228.82191,-155.3453 l 15.2921,-12.8677 v -12.1218 c 0,-6.9001 -0.746,-11.9353 -1.8649,-11.9353 -1.1189,0 -5.4082,3.1703 -9.8839,7.2731 -10.0704,9.1379 -65.8306,54.2682 -81.4957,66.017 -88.3957,65.6441 -145.64781,99.2121 -203.27289,118.98 l -23.31113,8.019 h -28.90577 c -30.3977,0 -39.34917,-1.8649 -60.60891,-12.4948 -33.38151,-16.5975 -53.70881,-50.1655 -56.69262,-93.2444 -3.3568,-49.6061 8.57848,-108.9096 35.99235,-176.978 16.784,-42.1465 25.92197,-55.7602 14.35966,-22.0057 -15.66507,46.2493 -21.44623,77.9524 -21.44623,120.2853 -0.1865,30.2113 0.18649,34.8735 4.28924,47.5547 8.95146,28.7193 24.24356,50.1656 42.51947,59.3035 24.05707,12.3083 62.66028,7.6461 103.31487,-12.6812 52.40339,-26.1085 141.54506,-94.5499 254.93036,-195.6269 l 30.3977,-27.0409 -0.5595,-91.5661 -0.5594,-91.379497 -4.8487,-10.2569 c -7.6461,-15.8516 -18.4624,-26.854495 -34.8735,-34.873495 l -14.1731,-7.08659995 -323.55833,-0.3729 c -249.89515,-0.1865 -326.16912,0.1865 -334.00165,2.05129995 z"
     id="path1772"
     style="fill:#008080;stroke:none;stroke-width:0.186489" />
</svg>
